<svg xmlns="http://www.w3.org/2000/svg" viewBox="0 0 40.31 46.16"><defs><style>.cls-1{fill:#10b4bb;}.cls-2{fill:#3d2a83;}.cls-3{fill:#fff;}</style></defs><g id="Capa_2" data-name="Capa 2"><g id="Capa_12" data-name="Capa 12"><path class="cls-1" d="M8.81,1.88A14.21,14.21,0,0,0,4.3,10.49S1.78,11.85.8,17A29.24,29.24,0,0,0,.31,28.1a16.61,16.61,0,0,0,4.47,9.69,9.48,9.48,0,0,0,.31,3.63c.56,2.33,2.3,3.91,5.3,4.46s5.48.22,6.15-.5,3.08-4.37,3.31-4.73l.06-39.16S13.56-2.11,8.81,1.88Z"/><path class="cls-2" d="M39.51,17c-1-5.15-3.5-6.51-3.5-6.51S36.73,4,31.53,1.07c-4-2.31-11.62.42-11.62.42h0l-.05,38.82a6.12,6.12,0,0,0,1.92,4.25c.47.46,1.66,1.37,5.22,1.14,3.37-.21,4.77-.86,6.6-3.42,1.39-2,.9-5.52.9-5.52A11.57,11.57,0,0,0,40,28.1,29,29,0,0,0,39.51,17Z"/><path class="cls-3" d="M19.83,16s-.59-2.42-2.26-2.87c-2.19-.6-4.24.32-6.38,1.26a5.88,5.88,0,0,1-2.47.41A9.75,9.75,0,0,0,12.34,17C14.5,17.71,17.88,18.17,19.83,16Z"/><path class="cls-3" d="M17.17,44.84s.84-2.22,1.18-3.39a23.09,23.09,0,0,0,.71-5.54c.18-3.25.46-20.39.46-20.39L20,16,19.9,41.24A41.4,41.4,0,0,1,17.17,44.84Z"/><path class="cls-3" d="M20.3,32.35a9.49,9.49,0,0,1,1.59-2.64,5.89,5.89,0,0,1,3.77-2.06c.55-.07.82-.42.53.48s0,1.29-1,2.79S21,32.75,20.3,32.35Z"/><path class="cls-3" d="M13.14,23.86a9.93,9.93,0,0,1,3.1.63,6,6,0,0,1,3.31,2.92c.26.5.69.64-.28.68s-1.23.49-3.05,0S13,24.69,13.14,23.86Z"/><path class="cls-3" d="M21.68,45.13s-.43-1.8-.77-3.13a38.52,38.52,0,0,1-.52-6.28c-.13-3.27-.28-11.39-.28-13.66,0-1.27-.07-6.54-.07-6.54l-.21.4,0,25.14S19.91,44.2,21.68,45.13Z"/><path class="cls-3" d="M28.41,4.32a35,35,0,0,0-5.05,3c-2,1.55-3.26,4.79-3.38,7.2A5,5,0,0,1,19.83,16c-.08.59.53.93,3.61-2.05C27.85,9.65,28.16,6,28.41,4.32Z"/></g></g></svg>