<svg height="512pt" preserveAspectRatio="xMidYMid meet" viewBox="0 0 512 512" width="512pt" xmlns="http://www.w3.org/2000/svg"><path d="m3925 4269c-115-15-195-49-286-120-101-79-159-162-192-276-9-29-29-72-45-95-101-147-139-304-107-431l8-29-39 20c-22 11-58 25-81 32-31 10-49 24-68 52-37 56-134 147-197 186-55 33-141 67-194 77-16 2-40 7-54 10-103 24-254 4-360-48-57-28-65-35-63-59 4-61 106-187 208-255 86-58 116-71 189-87 127-26 275-4 396 60 75 40 83 40 145 14 114-49 161-102 318-359l126-208-17-36c-18-38-51-52-152-62-66-7-468-8-515-2-22 3-69 9-105 12-146 13-320 40-395 60-33 9-69 18-80 21-103 23-196 51-197 59 0 24-35 66-68 81-19 10-49 30-66 46s-42 37-56 46c-149 98-281 202-321 253-54 68-95 163-103 236l-6 62 38 6c181 28 340 124 418 253 54 89 77 172 81 287 2 55 1 118-3 140-9 52-33 55-135 21-144-48-248-126-339-251-86-120-116-231-117-425 0-207 35-296 165-425 60-60 108-96 190-142 60-34 119-72 132-83 23-22 23-22 4-44-10-11-22-29-25-39-5-12-14-16-29-13-154 34-836 42-958 11-8-2-44-7-80-10-36-4-76-8-90-10s-47-6-75-10c-27-3-57-8-65-10-8-3-32-7-54-11-21-3-46-7-55-10-103-26-150-38-232-60-77-21-101-24-118-15-27 15-26 26 3 103 53 141 121 253 206 341 31 31 44 37 77 37 114 0 257 58 348 141 101 93 159 248 153 409l-3 85-31 1c-47 2-153-29-222-64-72-37-76-40-136-102-121-125-166-215-182-364-5-57-9-63-65-119-55-56-126-154-161-222-16-30-39-104-58-180-7-31-18-45-44-59-20-11-41-33-51-56-16-36-16-40 0-74 10-20 27-43 38-51 14-10 21-28 23-57 5-66 12-101 45-200 38-115 56-149 120-235 57-74 69-87 144-143 101-76 231-132 356-153 77-13 107-14 199-3 85 11 102 14 138 25 31 9 36 8 59-19 29-35 76-50 117-39 27 8 34 4 85-47 90-90 267-217 374-269 199-95 512-144 696-110 36 7 85 15 108 18 23 4 66 15 97 25 54 18 56 18 72 1 28-31 81-43 124-29 37 12 39 11 115-40 42-29 85-58 94-65 9-8 54-42 101-76 109-81 329-301 449-449 52-63 99-118 105-122 6-3 20 0 30 8 20 14 20 15 1 86-37 142-18 307 51 439 72 137 164 231 316 321l67 40 28-19c58-39 130-20 159 40 14 30 23 34 95 50 158 36 352 163 444 291 94 132 135 268 131 434-2 68 2 121 11 147 7 22 23 101 36 175 22 132 28 301 14 390-3 19-9 59-12 88-6 56-54 222-78 269-8 15-20 51-27 78-31 122-137 265-245 334-124 79-313 97-477 47-91-28-91-28-61-94 30-68 96-163 150-213 77-74 223-148 328-168 52-10 184-8 237 3 36 8 37 7 57-35 22-49 30-74 36-115 3-16 13-76 23-134 13-78 18-146 16-265-1-88-4-171-7-185s-8-43-12-65c-9-47-24-80-25-53 0 26-75 165-115 214-26 31-35 50-30 64 24 77-66 158-142 129-23-8-38-5-93 20-178 82-403 98-579 40-64-22-161-72-216-113-26-20-33-21-55-9-14 7-34 13-45 13-15 1-43 40-114 163-118 204-143 244-180 286-38 44-54 104-56 211-2 97 10 143 60 238 59 111 64 116 116 105 92-20 239 4 330 54 121 65 229 231 246 375 5 43 3 48-18 52-43 10-113 12-164 5zm504-1420c20-6 70-27 112-46l77-35 5-46c7-66 51-105 114-101 52 4 68-10 126-109 109-185 118-386 26-580-31-64-103-164-157-219-66-65-196-136-309-168l-62-17-26 30c-16 20-38 33-63 37-37 6-37 6-105 158-38 84-93 208-122 277s-99 222-154 340l-101 215 13 40c8 22 12 51 10 64-3 24 21 61 40 61 5 0 21 8 35 18 33 23 141 66 202 82 111 28 249 27 339-1zm-2669-64c69-4 138-8 153-9 25-2 46-19 47-38 0-7-53-71-95-113-39-39-252-292-375-445-53-66-109-134-125-152-17-18-47-55-68-81s-42-45-47-42c-18 11-81-25-98-54-15-26-27-33-92-48-146-33-330-15-473 46-163 70-347 271-400 437-17 51-37 154-37 186 0 10 10 23 22 28 41 17 59 38 72 81 13 42 14 43 93 70 45 16 93 30 107 33s34 7 44 10c9 2 37 7 62 10s56 8 70 11 39 8 55 10c17 3 55 10 85 15 137 24 250 34 490 46 80 3 146 7 147 8 5 4 254-2 363-9zm614-91c37-9 73-17 80-18 6-1 20-5 31-9 11-3 37-8 59-12 21-3 42-7 46-10 3-2 22-7 41-10s59-10 89-15c56-9 139-18 245-25 83-6 414-7 423-1 5 3 39 7 78 10 38 3 85 8 105 12 22 3 40 1 44-5 3-6-61-102-142-213-82-112-187-257-233-323s-129-181-185-255-133-179-170-232c-63-90-72-98-102-98-32 0-33 2-125 188-120 239-277 541-341 657-28 50-83 151-122 225l-71 135 21 31 20 31 70-24c39-13 101-31 139-39zm-302-23c4-4 77-144 161-311 196-389 332-653 367-710 65-108 107-196 98-210-4-8-12-27-17-42-8-21-18-27-53-33-45-8-46-8-117-25-104-25-443-12-531 21-14 5-34 11-45 13-47 10-193 69-264 107-113 62-178 109-258 188-69 68-71 71-66 110 4 30 0 49-15 75l-20 34 20 19c12 10 39 41 60 68 22 28 66 77 97 110s121 137 200 230c80 94 148 172 151 175 4 3 23 26 43 53 20 26 55 69 78 97 37 44 44 48 73 43 17-3 34-9 38-12zm1667-133c5-13 22-52 39-88 16-36 61-135 100-220 38-86 95-206 126-267s56-114 56-117c0-2 27-62 61-132l60-128-21-39c-12-21-19-44-16-52 3-9-20-27-72-56-92-50-188-124-269-209-62-65-134-208-149-296-11-66-12-77-13-159-1-77-1-79-18-55-9 14-71 79-137 146-171 170-417 367-558 446-34 19-37 24-32 55 4 24-1 44-15 68l-20 34 140 188c77 103 201 269 277 368 75 100 196 260 267 357 113 153 134 177 158 177 20 1 30-5 36-21z" transform="matrix(.1 0 0 -.1 0 512)"/></svg>