<svg xmlns="http://www.w3.org/2000/svg" width="28.857" height="38.293" viewBox="0 0 28.857 38.293">
  <g id="Grupo_68" data-name="Grupo 68" transform="translate(-68.108 -194.451)">
    <ellipse id="Elipse_32" data-name="Elipse 32" cx="13.429" cy="3.816" rx="13.429" ry="3.816" transform="translate(69.108 224.113)" fill="none" stroke="#392d7f" stroke-width="2"/>
    <g id="Grupo_67" data-name="Grupo 67" transform="translate(71.507 194.451)">
      <path id="Trazado_65" data-name="Trazado 65" d="M90.223,194.451a10.74,10.74,0,0,0-10.8,10.683,10.615,10.615,0,0,0,.178,1.925l.135.63a10.6,10.6,0,0,0,2.053,4.115L90.222,228.7l8.425-16.886a10.6,10.6,0,0,0,2.062-4.134l.133-.621a10.667,10.667,0,0,0-10.619-12.608Zm.138,14.776a3.825,3.825,0,1,1,3.866-3.825A3.845,3.845,0,0,1,90.361,209.227Z" transform="translate(-79.426 -194.451)" fill="#3d2984"/>
    </g>
  </g>
</svg>
