<svg xmlns="http://www.w3.org/2000/svg" width="49.735" height="48.142" viewBox="0 0 49.735 48.142">
  <g id="Grupo_35" data-name="Grupo 35" transform="translate(-427.479 -52.763)">
    <ellipse id="Elipse_19" data-name="Elipse 19" cx="21.799" cy="22.561" rx="21.799" ry="22.561" transform="translate(429.061 54.783)" fill="none" stroke="#392d7f" stroke-width="2"/>
    <path id="Trazado_36" data-name="Trazado 36" d="M465.361,61.946V84.063l-5.275,5.275L449.922,99.5" transform="translate(-14.501 -6.383)" fill="none" stroke="#392d7f" stroke-width="2"/>
    <line id="Línea_21" data-name="Línea 21" x1="15.915" y1="14.779" transform="translate(450.859 77.68)" fill="none" stroke="#392d7f" stroke-width="2"/>
    <path id="Trazado_37" data-name="Trazado 37" d="M567.612,115.629l-3.271,4.88-5.479-2.586" transform="translate(-91.228 -42.995)" fill="none" stroke="#392d7f" stroke-width="2"/>
    <path id="Trazado_38" data-name="Trazado 38" d="M429.061,158.536l1.04-5.723,4.9,2.79" transform="translate(-0.597 -69.547)" fill="none" stroke="#392d7f" stroke-width="2"/>
    <path id="Trazado_39" data-name="Trazado 39" d="M493.052,52.763" transform="translate(-44.482)" fill="none" stroke="#392d7f" stroke-width="0.5"/>
    <path id="Trazado_41" data-name="Trazado 41" d="M519.191,146.074v5.577L514,152.26" transform="translate(-60.042 -66.449)" fill="none" stroke="#392d7f" stroke-width="2"/>
    <line id="Línea_22" data-name="Línea 22" x1="6.877" y2="5.29" transform="translate(451.076 56.586)" fill="none" stroke="#392d7f" stroke-width="0.5"/>
    <line id="Línea_23" data-name="Línea 23" y2="25.338" transform="translate(446.843 55.393)" fill="none" stroke="#392d7f" stroke-width="0.5"/>
    <line id="Línea_24" data-name="Línea 24" y2="29.186" transform="translate(442.407 56.946)" fill="none" stroke="#392d7f" stroke-width="0.5"/>
    <line id="Línea_25" data-name="Línea 25" y2="31.612" transform="translate(437.509 59.418)" fill="none" stroke="#392d7f" stroke-width="0.5"/>
    <line id="Línea_26" data-name="Línea 26" y2="26.011" transform="translate(433.03 64.315)" fill="none" stroke="#392d7f" stroke-width="0.5"/>
    <line id="Línea_27" data-name="Línea 27" x1="9.698" y2="7.461" transform="translate(462.149 80.764)" fill="none" stroke="#392d7f" stroke-width="0.5"/>
    <line id="Línea_28" data-name="Línea 28" x1="12.989" y2="9.992" transform="translate(451.518 59.751)" fill="none" stroke="#392d7f" stroke-width="0.5"/>
    <line id="Línea_29" data-name="Línea 29" x1="15.624" y2="12.019" transform="translate(456.491 71.334)" fill="none" stroke="#392d7f" stroke-width="0.5"/>
    <line id="Línea_30" data-name="Línea 30" x1="16.7" y2="12.847" transform="translate(451.935 65.697)" fill="none" stroke="#392d7f" stroke-width="0.5"/>
    <line id="Línea_31" data-name="Línea 31" x2="6.429" transform="translate(447.453 81.086)" fill="none" stroke="#392d7f" stroke-width="0.5"/>
    <line id="Línea_32" data-name="Línea 32" x1="12.59" transform="translate(444.372 84.137)" fill="none" stroke="#392d7f" stroke-width="0.5"/>
    <line id="Línea_33" data-name="Línea 33" x1="18.898" transform="translate(441.828 87.188)" fill="none" stroke="#392d7f" stroke-width="0.5"/>
    <line id="Línea_34" data-name="Línea 34" x1="24.834" transform="translate(438.86 90.238)" fill="none" stroke="#392d7f" stroke-width="0.5"/>
    <line id="Línea_35" data-name="Línea 35" x1="29.024" transform="translate(436.765 93.289)" fill="none" stroke="#392d7f" stroke-width="0.5"/>
    <line id="Línea_36" data-name="Línea 36" x1="24.834" transform="translate(438.86 96.339)" fill="none" stroke="#392d7f" stroke-width="0.5"/>
  </g>
</svg>
