<svg xmlns="http://www.w3.org/2000/svg" width="43.746" height="35.961" viewBox="0 0 43.746 35.961">
  <g id="Grupo_80" data-name="Grupo 80" transform="translate(-676.361 -390.509) rotate(-14)">
    <path id="Trazado_69" data-name="Trazado 69" d="M577.311,560.5a9.7,9.7,0,0,1,1.963.2,9.656,9.656,0,1,0-11.426,7.534A9.658,9.658,0,0,1,577.311,560.5Z" transform="translate(0 0)" fill="#fff"/>
    <path id="Trazado_70" data-name="Trazado 70" d="M619.723,623.125a9.664,9.664,0,0,1-11.426,7.534,9.656,9.656,0,1,0,11.426-7.534Z" transform="translate(-40.449 -62.427)" fill="none" stroke="#fff" stroke-width="2"/>
    <path id="Trazado_71" data-name="Trazado 71" d="M681.464,580.786A9.664,9.664,0,0,1,689,592.211a9.656,9.656,0,1,0-7.534-11.426Z" transform="translate(-102.333 -20.221)" fill="none" stroke="#fff" stroke-width="2"/>
    <path id="Trazado_72" data-name="Trazado 72" d="M620.757,622.047a9.665,9.665,0,0,0-11.426,7.534,9.664,9.664,0,0,0,11.426-7.534Z" transform="translate(-41.483 -61.349)" fill="#fff" stroke="#392d7f" stroke-width="2"/>
    <line id="Línea_51" data-name="Línea 51" x2="5.177" y2="11.615" transform="translate(592.637 553.761)" fill="none" stroke="#fff" stroke-width="1"/>
    <line id="Línea_52" data-name="Línea 52" x2="7.042" y2="16.259" transform="translate(588.586 552.872)" fill="none" stroke="#fff" stroke-width="1"/>
    <line id="Línea_53" data-name="Línea 53" x2="8.108" y2="17.488" transform="translate(583.999 554.031)" fill="none" stroke="#fff" stroke-width="1"/>
    <line id="Línea_54" data-name="Línea 54" x2="7.107" y2="16.188" transform="translate(581.48 555.994)" fill="none" stroke="#fff" stroke-width="1"/>
  </g>
</svg>
