<svg xmlns="http://www.w3.org/2000/svg" width="56.81" height="54.925" viewBox="0 0 56.81 54.925">
  <g id="Grupo_31" data-name="Grupo 31" transform="translate(-771.008 -93.611)">
    <g id="Grupo_30" data-name="Grupo 30" transform="translate(803.424 96.483)">
      <path id="Trazado_24" data-name="Trazado 24" d="M871.978,101.477A12.188,12.188,0,0,0,860.191,116.8c.122-.005.244-.01.366-.01a8.923,8.923,0,0,1,2.783.441c.086,0,.172-.014.259-.014a6.119,6.119,0,0,1,6.015,5.914,7.266,7.266,0,0,1,.355,1.091,10.6,10.6,0,0,1,.375,1.535,12.322,12.322,0,0,0,1.635.112,12.2,12.2,0,0,0,0-24.394Zm.467,18.113H870.78v-9.005h1.665Zm-.832-10.612a1.171,1.171,0,1,1,1.171-1.171A1.171,1.171,0,0,1,871.612,108.978Zm5.982,12.638a3.264,3.264,0,1,1,3.264-3.264A3.264,3.264,0,0,1,877.594,121.616Z" transform="translate(-859.781 -101.477)" fill="#3d2984"/>
      <path id="Trazado_25" data-name="Trazado 25" d="M905.333,146.187l-.954-1.346.954,1.346,2.364-2.965Z" transform="translate(-888.094 -127.979)" fill="#3d2984" stroke="#392d7f" stroke-width="1"/>
    </g>
    <path id="Trazado_26" data-name="Trazado 26" d="M829.951,137.887a3.359,3.359,0,0,0-2.877-1.536l-3.5.064a3.407,3.407,0,0,0-.48-.592,3.349,3.349,0,0,0-2.4-.944l-1.862.034a3.423,3.423,0,0,0-2.79,1.64l-3.534.065a3.369,3.369,0,0,0-3.307,3.431l.1,5.4a5.239,5.239,0,0,0-.85.705,5.154,5.154,0,0,0-1.452,3.7l.11,5.984a5.614,5.614,0,0,0,1.717,3.939l5.6,5.4.167,9.065,2.246-.041-.176-9.53a1.121,1.121,0,0,0-.343-.788l-5.939-5.724a3.4,3.4,0,0,1-1.031-2.364l-.11-5.984a2.954,2.954,0,0,1,2.89-3l12.339-.228a.738.738,0,0,1,.751.723h0a3.37,3.37,0,0,1-3.308,3.432l-6.561.121a1.167,1.167,0,0,0-1.164,1.06,1.121,1.121,0,0,0,1.141,1.188,8.419,8.419,0,0,1,8.562,8.252l2.246-.041a10.642,10.642,0,0,0-4.271-8.331h.089a5.586,5.586,0,0,0,3.87-1.66l1.524-.028a3.319,3.319,0,0,1,4.493-.083l1.862-.034a3.343,3.343,0,0,0,1.119-.226l.125,6.75a3.4,3.4,0,0,1-.945,2.4l-2.606,2.7a1.121,1.121,0,0,0-.314.8l.2,11.118,2.246-.042-.2-10.653,2.283-2.369a5.616,5.616,0,0,0,1.572-4l-.171-9.258h-.064a3.374,3.374,0,0,0,.052-.659l-.121-6.54a3.478,3.478,0,0,0-.746-2.138,3.359,3.359,0,0,0-2.687-1.255Zm-11.08-.727,1.862-.034a1.123,1.123,0,0,1,1.144,1.1l.114,6.161-4.107.076-.114-6.161a1.124,1.124,0,0,1,1.1-1.144Zm-7.341,7.475-.085-4.626a1.123,1.123,0,0,1,1.1-1.144l2.221-.041a.763.763,0,0,1,.777.749l.091,4.932-3.545.065a5.408,5.408,0,0,0-.561.064Zm15.654,4.424a5.562,5.562,0,0,0,.284-1.787l-.026-1.381a1.6,1.6,0,0,0-1.631-1.573l-1.576.028-.09-4.9a.794.794,0,0,1,.779-.808l2.191-.04a1.126,1.126,0,0,1,1.144,1.1l.134,7.284.017.931a1.123,1.123,0,0,1-1.1,1.144Zm7.457-7.889.122,6.626a1.124,1.124,0,0,1-1.1,1.144l-1.862.034a1.125,1.125,0,0,1-.938-.476,1.183,1.183,0,0,1-.206-.672l-.016-.885-.114-6.173a.645.645,0,0,1,.633-.657l2.339-.043a1.124,1.124,0,0,1,1.144,1.1Z" transform="translate(-22.847 -26.199)" fill="#3d2984"/>
    <path id="Trazado_27" data-name="Trazado 27" d="M771.008,111.757l1.324-1.815,12.831,9.361-1.324,1.815Z" transform="translate(0 -10.368)" fill="#3d2984"/>
    <path id="Trazado_28" data-name="Trazado 28" d="M807.4,93.958l2.219-.347,2.083,13.317-2.22.347Z" transform="translate(-23.102 0)" fill="#3d2984"/>
  </g>
</svg>
