<svg xmlns="http://www.w3.org/2000/svg" width="43" height="41.113" viewBox="0 0 43 41.113">
  <g id="Grupo_72" data-name="Grupo 72" transform="translate(-410.222 -768.699)">
    <g id="Grupo_71" data-name="Grupo 71" transform="translate(419.156 776.3)">
      <g id="Grupo_70" data-name="Grupo 70" transform="translate(0 0)">
        <path id="Trazado_66" data-name="Trazado 66" d="M464.844,893.313H453.3a6.575,6.575,0,0,0-6.575,6.575v3.941h24.691v-3.941A6.575,6.575,0,0,0,464.844,893.313Z" transform="translate(-446.285 -870.96)" fill="none" stroke="#fff" stroke-linecap="round" stroke-linejoin="round" stroke-width="1"/>
        <path id="Rectángulo_50" data-name="Rectángulo 50" d="M7.308,0h0a7.308,7.308,0,0,1,7.308,7.308v6.04a7.308,7.308,0,0,1-7.308,7.308h0A7.308,7.308,0,0,1,0,13.348V7.308A7.308,7.308,0,0,1,7.308,0Z" transform="translate(5.551 1.706)" fill="none" stroke="#fff" stroke-linecap="round" stroke-linejoin="round" stroke-width="1"/>
        <path id="Rectángulo_51" data-name="Rectángulo 51" d="M2.9,0H22.673a2.9,2.9,0,0,1,2.9,2.9v0a0,0,0,0,1,0,0H0a0,0,0,0,1,0,0v0A2.9,2.9,0,0,1,2.9,0Z" transform="translate(0 5.638)" fill="#fff"/>
        <path id="Rectángulo_52" data-name="Rectángulo 52" d="M6.1,0H9.036a6.1,6.1,0,0,1,6.1,6.1v0a0,0,0,0,1,0,0H0a0,0,0,0,1,0,0v0A6.1,6.1,0,0,1,6.1,0Z" transform="translate(5.195)" fill="#fff"/>
        <g id="Grupo_69" data-name="Grupo 69" transform="translate(5.551 10.843)">
          <path id="Trazado_67" data-name="Trazado 67" d="M467.443,846.628V849.6h14.615v-2.971Zm5.942,1.9a.553.553,0,0,1-.6.478H470.2a.553.553,0,0,1-.6-.478V847.9a.553.553,0,0,1,.6-.478h2.583a.552.552,0,0,1,.6.478Zm6.571,0a.553.553,0,0,1-.6.478h-2.583a.553.553,0,0,1-.6-.478V847.9a.552.552,0,0,1,.6-.478h2.583a.553.553,0,0,1,.6.478Z" transform="translate(-467.443 -846.628)" fill="#fff"/>
        </g>
      </g>
    </g>
    <rect id="Rectángulo_53" data-name="Rectángulo 53" width="42" height="40.113" rx="3" transform="translate(410.722 769.199)" fill="none" stroke="#fff" stroke-linecap="round" stroke-linejoin="round" stroke-width="1"/>
  </g>
</svg>
