<svg xmlns="http://www.w3.org/2000/svg" width="61.331" height="59.295" viewBox="0 0 61.331 59.295">
  <g id="Grupo_24" data-name="Grupo 24" transform="translate(-710.467 -846.682)">
    <g id="Grupo_23" data-name="Grupo 23" transform="translate(745.462 849.783)">
      <path id="Trazado_14" data-name="Trazado 14" d="M850.813,883.37h-.8v1.487h.8a.855.855,0,0,0,.6-.194.724.724,0,0,0,.21-.561.7.7,0,0,0-.21-.543A.864.864,0,0,0,850.813,883.37Z" transform="translate(-829.996 -872.008)" fill="#fff"/>
      <path id="Trazado_15" data-name="Trazado 15" d="M837.2,883.522a1.227,1.227,0,0,0-.66-.186,1.262,1.262,0,0,0-.667.186,1.346,1.346,0,0,0-.488.515,1.482,1.482,0,0,0-.18.723,1.467,1.467,0,0,0,.183.729,1.4,1.4,0,0,0,.488.519,1.226,1.226,0,0,0,.664.191,1.209,1.209,0,0,0,.66-.191,1.336,1.336,0,0,0,.474-.519,1.611,1.611,0,0,0,0-1.452A1.316,1.316,0,0,0,837.2,883.522Z" transform="translate(-821.027 -871.988)" fill="#fff"/>
      <path id="Trazado_16" data-name="Trazado 16" d="M812.408,854.548a13.158,13.158,0,0,0-12.725,16.544c.131-.006.263-.011.4-.011a9.622,9.622,0,0,1,3,.476c.093,0,.186-.015.279-.015a6.606,6.606,0,0,1,6.494,6.385,7.846,7.846,0,0,1,.383,1.178,11.387,11.387,0,0,1,.4,1.657,13.166,13.166,0,1,0,1.765-26.214Zm-4.883,14.589a1.553,1.553,0,0,1-.7.515,2.73,2.73,0,0,1-.993.173,3.583,3.583,0,0,1-1.2-.211,3.266,3.266,0,0,1-1.034-.578l.491-.989a3.063,3.063,0,0,0,.868.532,2.374,2.374,0,0,0,.888.207.826.826,0,0,0,.446-.1.339.339,0,0,0,.162-.3.36.36,0,0,0-.121-.277.9.9,0,0,0-.3-.176q-.184-.066-.516-.156a6.334,6.334,0,0,1-.823-.28,1.456,1.456,0,0,1-.557-.429,1.181,1.181,0,0,1-.231-.764,1.335,1.335,0,0,1,.239-.788,1.518,1.518,0,0,1,.678-.522,2.639,2.639,0,0,1,1.02-.183,3.7,3.7,0,0,1,1.037.149,3.41,3.41,0,0,1,.9.4l-.477,1.01a4.235,4.235,0,0,0-.826-.373,2.433,2.433,0,0,0-.737-.145.678.678,0,0,0-.37.087.281.281,0,0,0-.135.252.345.345,0,0,0,.117.266.9.9,0,0,0,.291.173q.173.066.512.169a6.58,6.58,0,0,1,.833.291,1.454,1.454,0,0,1,.564.446,1.238,1.238,0,0,1,.235.785A1.344,1.344,0,0,1,807.525,869.137Zm3.181.612h-1.265v-3.8H808V864.9h4.157v1.044h-1.453Zm6.311-1.148a2.47,2.47,0,0,1-.941.906,2.875,2.875,0,0,1-2.677,0,2.431,2.431,0,0,1-.941-.906,2.481,2.481,0,0,1-.342-1.29,2.41,2.41,0,0,1,1.283-2.165,2.916,2.916,0,0,1,2.677,0,2.411,2.411,0,0,1,1.283,2.165A2.463,2.463,0,0,1,817.017,868.6Zm4.54-.667a2.039,2.039,0,0,1-1.439.473h-.864v1.342h-1.266V864.9h2.13a2.119,2.119,0,0,1,1.439.446,1.577,1.577,0,0,1,.512,1.255A1.726,1.726,0,0,1,821.557,867.933Z" transform="translate(-799.24 -854.548)" fill="#fff"/>
    </g>
    <path id="Trazado_17" data-name="Trazado 17" d="M771.236,891.2a3.628,3.628,0,0,0-3.106-1.658l-3.781.07a3.669,3.669,0,0,0-.519-.64,3.615,3.615,0,0,0-2.591-1.018l-2.01.037a3.694,3.694,0,0,0-3.012,1.771l-3.815.07a3.637,3.637,0,0,0-3.57,3.7l.107,5.833a5.654,5.654,0,0,0-.917.762,5.564,5.564,0,0,0-1.568,3.993l.119,6.461a6.06,6.06,0,0,0,1.854,4.253l6.05,5.832.18,9.786,2.425-.045-.19-10.288a1.209,1.209,0,0,0-.37-.851l-6.411-6.18A3.664,3.664,0,0,1,749,910.537l-.119-6.461a3.188,3.188,0,0,1,3.12-3.237l13.32-.246a.8.8,0,0,1,.81.781h0a3.639,3.639,0,0,1-3.571,3.7l-7.084.13a1.26,1.26,0,0,0-1.256,1.144,1.211,1.211,0,0,0,1.232,1.283,9.089,9.089,0,0,1,9.243,8.908l2.425-.045a11.487,11.487,0,0,0-4.612-8.994l.1,0a6.03,6.03,0,0,0,4.178-1.792l1.646-.03a3.584,3.584,0,0,1,4.851-.089l2.01-.037a3.6,3.6,0,0,0,1.208-.243l.134,7.287a3.672,3.672,0,0,1-1.02,2.592L772.8,918.11a1.209,1.209,0,0,0-.339.864l.221,12,2.425-.045-.212-11.5,2.465-2.557a6.062,6.062,0,0,0,1.7-4.319l-.184-9.994H778.8a3.653,3.653,0,0,0,.056-.712l-.13-7.06a3.755,3.755,0,0,0-.805-2.308,3.626,3.626,0,0,0-2.9-1.355Zm-11.961-.785,2.01-.037a1.212,1.212,0,0,1,1.235,1.19l.123,6.651-4.434.082-.122-6.651a1.213,1.213,0,0,1,1.19-1.235Zm-7.925,8.071-.092-5a1.213,1.213,0,0,1,1.19-1.235l2.4-.044a.824.824,0,0,1,.839.809l.1,5.325-3.827.071a5.6,5.6,0,0,0-.606.069Zm16.9,4.776a5.987,5.987,0,0,0,.307-1.929l-.027-1.491a1.73,1.73,0,0,0-1.761-1.7l-1.7.031-.1-5.293a.857.857,0,0,1,.84-.872l2.366-.044a1.216,1.216,0,0,1,1.235,1.19l.145,7.864.018,1a1.212,1.212,0,0,1-1.19,1.234Zm8.051-8.517.132,7.154a1.212,1.212,0,0,1-1.19,1.235l-2.009.037a1.216,1.216,0,0,1-1.013-.514,1.281,1.281,0,0,1-.222-.726l-.017-.956-.123-6.664a.7.7,0,0,1,.684-.709l2.525-.047a1.213,1.213,0,0,1,1.235,1.19Z" transform="translate(-21.801 -25)" fill="#fff"/>
    <path id="Trazado_18" data-name="Trazado 18" d="M710.467,864.971l1.429-1.959,13.853,10.106-1.429,1.959Z" transform="translate(0 -9.892)" fill="#fff"/>
    <path id="Trazado_19" data-name="Trazado 19" d="M746.856,847.056l2.4-.375,2.249,14.377-2.4.375Z" transform="translate(-22.044 0)" fill="#fff"/>
  </g>
</svg>
